<?xml version="1.0" encoding="UTF-8" standalone="no"?>
<!-- Created with Inkscape (http://www.inkscape.org/) -->

<svg
   xmlns:dc="http://purl.org/dc/elements/1.1/"
   xmlns:cc="http://creativecommons.org/ns#"
   xmlns:rdf="http://www.w3.org/1999/02/22-rdf-syntax-ns#"
   xmlns:svg="http://www.w3.org/2000/svg"
   xmlns="http://www.w3.org/2000/svg"
   xmlns:sodipodi="http://sodipodi.sourceforge.net/DTD/sodipodi-0.dtd"
   xmlns:inkscape="http://www.inkscape.org/namespaces/inkscape"
   width="125.34799"
   height="39.259972"
   viewBox="0 0 33.164989 10.387534"
   version="1.1"
   id="svg3194"
   inkscape:version="0.92.0 r15299"
   sodipodi:docname="cheil.svg">
  <defs
     id="defs3188">
    <clipPath
       id="clipPath3121"
       clipPathUnits="userSpaceOnUse">
      <path
         inkscape:connector-curvature="0"
         id="path3119"
         d="M 0,0 H 623.622 V 680.315 H 0 Z" />
    </clipPath>
  </defs>
  <sodipodi:namedview
     id="base"
     pagecolor="#ffffff"
     bordercolor="#666666"
     borderopacity="1.0"
     inkscape:pageopacity="0.0"
     inkscape:pageshadow="2"
     inkscape:zoom="7.2136264"
     inkscape:cx="62.173941"
     inkscape:cy="19.129976"
     inkscape:document-units="mm"
     inkscape:current-layer="layer1"
     showgrid="false"
     fit-margin-top="0"
     fit-margin-left="0"
     fit-margin-right="0"
     fit-margin-bottom="0"
     units="px"
     inkscape:window-width="1280"
     inkscape:window-height="744"
     inkscape:window-x="-4"
     inkscape:window-y="-4"
     inkscape:window-maximized="1" />
  <metadata
     id="metadata3191">
    <rdf:RDF>
      <cc:Work
         rdf:about="">
        <dc:format>image/svg+xml</dc:format>
        <dc:type
           rdf:resource="http://purl.org/dc/dcmitype/StillImage" />
        <dc:title></dc:title>
      </cc:Work>
    </rdf:RDF>
  </metadata>
  <g
     inkscape:label="Layer 1"
     inkscape:groupmode="layer"
     id="layer1"
     transform="translate(-86.359335,-191.13228)">
    <path
       inkscape:connector-curvature="0"
       id="path3125"
       style="fill:#231f20;fill-opacity:1;fill-rule:nonzero;stroke:none;stroke-width:0.35277778"
       d="m 108.16486,193.71355 c -2.31493,0 -3.83716,1.72685 -3.83716,3.84563 0,2.32939 1.63406,3.80365 4.01672,3.80365 1.50001,0 3.06917,-0.87489 3.53237,-2.43452 h -2.36256 c -0.17321,0.39864 -0.6805,0.68227 -1.22237,0.68227 -0.81986,0 -1.3208,-0.59584 -1.39347,-1.47179 h 5.12903 c 0.0438,-0.18767 0.06,-0.38417 0.06,-0.57961 0,-1.97485 -1.23508,-3.84563 -3.92254,-3.84563 m -1.25342,3.0032 c 0.12524,-0.80363 0.59408,-1.24954 1.40758,-1.24954 0.70485,0 1.20156,0.56127 1.20156,1.24954 z m -5.51603,-2.75837 c -0.96591,0 -1.632303,0.31291 -2.132542,0.76094 v -3.22439 h -2.680053 v 9.66294 h 2.680053 v -3.66995 c 0,-1.08479 0.567619,-1.391 1.014942,-1.391 0.78493,0 0.93345,0.56726 0.93345,1.37971 v 3.68124 h 2.68005 v -4.81683 c 0,-1.61149 -1.17616,-2.38266 -2.4959,-2.38266 m -9.968442,5.02038 c -1.483078,0 -1.958269,-1.35361 -1.958269,-2.65148 0,-1.29999 0.475191,-2.65218 1.958269,-2.65218 1.309511,0 1.624542,1.06786 1.682397,1.41957 h 2.956278 c -0.267759,-2.42252 -2.061281,-3.8301 -4.555067,-3.8301 -2.965802,0 -5.018969,2.1209 -5.018969,5.06271 0,2.85433 1.87713,5.06024 5.018969,5.06024 2.766484,0 4.5974,-2.07045 4.5974,-4.01849 h -2.983441 c -0.190148,0.90558 -0.632178,1.60973 -1.697567,1.60973 m 21.177252,2.17911 h 2.67934 v -7.02346 h -2.67934 z m 4.10809,0 h 2.6797 v -9.66259 h -2.6797 z m -4.10809,-7.28098 2.79541,-2.38196 h -2.79541 z" />
  </g>
</svg>
